<svg xmlns="http://www.w3.org/2000/svg" viewBox="0 0 512 512" role="img" aria-label="Danny Wild Rift coaching clean D logo">
  <defs>
    <linearGradient id="dGradient" x1="126" y1="96" x2="402" y2="416" gradientUnits="userSpaceOnUse">
      <stop offset="0" stop-color="#67e8f9"/>
      <stop offset="0.45" stop-color="#3b82f6"/>
      <stop offset="0.78" stop-color="#7c3aed"/>
      <stop offset="1" stop-color="#a855f7"/>
    </linearGradient>
    <linearGradient id="edgeGradient" x1="144" y1="112" x2="398" y2="402" gradientUnits="userSpaceOnUse">
      <stop offset="0" stop-color="#d7fbff"/>
      <stop offset="0.5" stop-color="#8bd7ff"/>
      <stop offset="1" stop-color="#c4b5fd"/>
    </linearGradient>
    <radialGradient id="bgGlow" cx="50%" cy="46%" r="62%">
      <stop offset="0" stop-color="#15133f"/>
      <stop offset="0.6" stop-color="#0b0a22"/>
      <stop offset="1" stop-color="#080812"/>
    </radialGradient>
    <filter id="lightGlow" x="-10%" y="-10%" width="120%" height="120%">
      <feGaussianBlur stdDeviation="3.5" result="blur"/>
      <feColorMatrix in="blur" type="matrix" values="0 0 0 0 0.25  0 0 0 0 0.56  0 0 0 0 1  0 0 0 0.32 0" result="glow"/>
      <feMerge>
        <feMergeNode in="glow"/>
        <feMergeNode in="SourceGraphic"/>
      </feMerge>
    </filter>
  </defs>

  <rect width="512" height="512" rx="80" fill="#080812"/>
  <circle cx="256" cy="256" r="202" fill="url(#bgGlow)" opacity="0.78"/>

  <g filter="url(#lightGlow)">
    <path d="M150 104H272C382 104 452 164 452 256S382 408 272 408H150V104ZM226 176V336H270C331 336 374 304 374 256S331 176 270 176H226Z" fill="url(#dGradient)" fill-rule="evenodd"/>
    <path d="M226 176V336H270C331 336 374 304 374 256S331 176 270 176H226Z" fill="#080812" opacity="0.98"/>

    <path d="M150 104H272C382 104 452 164 452 256S382 408 272 408H150V104ZM226 176V336H270C331 336 374 304 374 256S331 176 270 176H226Z" fill="none" stroke="url(#edgeGradient)" stroke-width="5" stroke-linejoin="round" opacity="0.55"/>
    <path d="M150 108V404" stroke="#d7fbff" stroke-width="7" stroke-linecap="square" opacity="0.48"/>

    <path d="M312 113C349 121 380 137 404 160C387 155 368 153 349 156C337 146 324 137 307 128L312 113Z" fill="#080812" opacity="0.82"/>
    <path d="M312 113C349 121 380 137 404 160C384 156 365 155 348 158" fill="none" stroke="#8bd7ff" stroke-width="4" stroke-linecap="round" stroke-linejoin="round" opacity="0.7"/>
    <path d="M363 146l13 5-14 4Z" fill="#67e8f9" opacity="0.9"/>
  </g>
</svg>
